# xmcd
#
# Track frame offsets: 
#        183
#        14660
#        27333
#        41675
#        57333
#        72635
#        86288
#        102660
#        112785
#        125293
#        141948
#        157968
#        166855
#        185200
#        195658
#        210438
#        220451
#
# Disc length: 2972 seconds
#
# Revision: 1
# Processed by: cddbd v1.5.2PL0 Copyright (c) Steve Scherf et al.
# Submitted via: ExactAudioCopy v0.99pb5
#
DISCID=f70b9a11
DTITLE=Shirley Bassey - The EMI-UA Years 1959-1979 [CD5 of 5)
DYEAR=2010
DGENRE=Vocal
TTITLE0=One In A Lifetime
TTITLE1=Just One Of Those Things
TTITLE2=As Long As He Needs Me
TTITLE3=Burn My Candle (At Both Ends)
TTITLE4=All The Things You Are
TTITLE5=If I Were A Bell
TTITLE6=What Now My Love
TTITLE7=A Lot Of Livin' To Do
TTITLE8=No Regrets
TTITLE9=Typically English
TTITLE10=In Other Words (Fly Me To The Moon)
TTITLE11=Please Mr Brown
TTITLE12=I'm A Fool To Want You
TTITLE13=You
TTITLE14=Johnny One Note
TTITLE15=I Could Have Danced All Night
TTITLE16=A Lovely Way To Spend An Evening (Instrumental)
EXTD=
EXTT0=
EXTT1=
EXTT2=
EXTT3=
EXTT4=
EXTT5=
EXTT6=
EXTT7=
EXTT8=
EXTT9=
EXTT10=
EXTT11=
EXTT12=
EXTT13=
EXTT14=
EXTT15=
EXTT16=
PLAYORDER=
